<?xml version="1.0" encoding="UTF-8"?>
<svg version="1.1" viewBox="0 0 2048 647" width="889" height="281" xmlns="http://www.w3.org/2000/svg">
<path transform="translate(249,97)" d="m0 0h44l31 3 35 5 37 8 27 8 22 8 5 3 1 5-6 16-7 18-9 24-11 28-7 17-5 1-20-8-23-7-41-9-30-4-16-1h-23l-20 2-12 4-7 5-3 6v8l3 5 10 7 19 9 52 17 37 11 32 12 21 9 3 3-11-2-19-2h-11l-22 3-20 6-16 7-14 9-9 7-12 11-10 12-10 15-3 1-22-7-28-9-28-11-15-8-16-11-12-9-9-8-11-14-10-15-5-11-4-18-1-10v-28l3-20 6-18 9-16 11-13 11-11 15-11 16-9 20-8 21-6 26-5 25-3z" fill="#043EB8"/>
<path transform="translate(346,327)" d="m0 0h14l16 2 15 4 15 6 16 10 15 13 10 12 10 16 7 17 3 11 2 14v22l-3 17-5 15-8 16-10 14-11 12-14 11-21 11-21 6-13 2h-19l-18-3-18-6-17-9-14-11-12-12-9-12-9-17-5-15-3-14-1-9v-15l3-20 6-18 9-17 10-13 7-8 11-9 14-9 15-7 13-4zm47 36v16l7 8 9 10 8 14 5 16 1 6v19l-4 16-5 12-9 13-12 12v17l2 1 12-9 13-13 9-14 7-16 4-20v-17l-4-20-7-16-9-14-7-8-11-9-6-4zm-50 32-13 5-8 6-7 7-6 11-3 9-1 5v9l3 12 5 10 9 10 8 6 10 4 10 2h8l13-3 11-6 7-6 7-10 5-12 1-5v-12l-4-15-9-13-10-8-11-5-4-1z" fill="#E36705"/>
<path transform="translate(708,260)" d="m0 0h49l12 19 15 25 17 28 9 15 3 3 9-16 15-25 17-29 12-20h49v172h-53v-75l-3 3-32 54-2 3h-27l-16-26-13-21-6-10-1 72h-54z" fill="#043EB8"/>
<path transform="translate(110,443)" d="m0 0 4 2 14 13 11 9 14 12 16 12 18 13 21 14 20 12 18 10 22 11 27 11 25 8 22 5 23 3 13 1v3l-19 10-25 10-25 7-26 5-27 3-20 1h-14l-33-2-32-4-31-6-28-7-36-12 1-7 24-71 14-41 8-24z" fill="#043EB8"/>
<path transform="translate(1652,259)" d="m0 0 113 1 17 4 14 7 9 8 6 10 3 12v9l-3 12-6 10-7 7-5 3-1 2 6 2 10 7 8 9 5 12 1 5v13l-4 13-7 9-8 7-12 6-15 4-7 1h-118v-172zm57 42v26h32l9-3 4-5v-9l-3-5-5-3-6-1zm0 64v26h40l8-3 5-5v-10l-5-6-7-2z" fill="#E36705"/>
<path transform="translate(1516,254)" d="m0 0h34l17 4 13 5 14 8 14 12 11 15 6 13 4 13 1 5v30l-5 19-9 17-9 11-10 9-13 8-13 6-15 4-18 2h-12l-16-2-15-4-14-6-13-9-10-9-8-10-7-12-6-18-2-14v-13l2-14 5-16 7-13 10-13 10-9 13-8 16-7zm12 47-13 4-10 8-6 9-4 13-1 10 3 17 6 11 7 7 12 6 6 1h11l12-4 9-7 6-8 4-10 1-6v-15l-3-12-4-8-7-8-8-5-11-3z" fill="#E36705"/>
<path transform="translate(1179,254)" d="m0 0h35l18 4 13 5 11 6 9 7 10 10-2 4-13 12-11 9-10 9-4-2-9-8-12-6-9-2h-12l-12 3-10 6-6 7-4 8-2 8v20l3 10 6 10 7 6 11 5 6 1h14l12-3 1-44h51v75l-14 8-19 7-18 4-17 2h-12l-18-2-17-5-16-8-11-8-11-11-9-14-5-11-4-17-1-15 1-15 5-19 7-14 9-12 8-8 13-9 14-7 13-4z" fill="#E36705"/>
<path transform="translate(1841,260)" d="m0 0h141v43l-82 1-1 19h65l8 1v40l-1 1h-45l-26 1v23h85v43h-144z" fill="#E36705"/>
<path transform="translate(601,254)" d="m0 0h35l18 3 17 5 12 6 1 2-17 40-2 1-13-6-16-5-12-2h-13l-10 3-3 1-1 8 5 5 18 5 27 6 17 6 11 7 8 8 7 14 1 5v19l-4 13-7 11-4 5-11 8-12 6-13 4-12 2h-38l-22-4-14-4-15-6-3-2 1-5 13-29 4-9 6 2 13 6 17 5 14 2h16l10-3 2-2v-7l-5-4-22-6-25-6-13-5-12-7-8-8-6-10-3-13v-12l4-16 6-10 9-10 11-7 11-5 16-4z" fill="#043EB8"/>
<path transform="translate(999,254)" d="m0 0h34l18 3 20 6 10 5-3 9-14 34-5-2-18-7-12-3-8-1h-12l-11 3-4 5 1 6 4 3 18 5 23 5 16 5 12 6 10 9 6 8 3 8 1 4v21l-4 13-9 13-11 9-14 7-13 4-11 2h-39l-22-4-17-5-14-7-1-3 11-24 7-16 6 2 16 7 15 4 13 2h15l9-2 5-5-1-7-5-2-22-6-25-6-15-6-11-7-9-10-5-11-2-13 1-13 4-12 6-10 7-8 14-9 13-5 12-3z" fill="#043EB8"/>
<path transform="translate(1293,260)" d="m0 0h59l1 3-1 124h77l1 1 1 44h-138z" fill="#E36705"/>
<path transform="translate(814,476)" d="m0 0h30l9 4 4 5 1 3v12l-4 8-7 6-6 1 8 16 2 5h-9l-10-18-18-1-1 9-2 10h-9l5-28 6-30zm7 7-5 24v3h21l7-3 5-6 1-10-3-5-8-3z" fill="#08070B"/>
<path transform="translate(337,289)" d="m0 0 9 2 28 11 14 7-3 1-15-3-12-1h-11l-22 3-20 6-16 7-14 9-9 7-12 11-10 12-10 15-3 1-22-7-28-9-28-11-15-8-16-11-12-9-5-6h3l10 8 2 1v2l5 2 9 6 23 12 32 12 17 5 15 5 10 2 3-1 2-5 1-3h2v-2h2l2-4 2-3h2l2-4 3-5 11-10h2l1-3 13-8 7-5 9-3 10-5 17-4 11-3 17-2-2-5h-2v-2l-4-1-5-2z" fill="#0C3AAA"/>
<path transform="translate(746,472)" d="m0 0h9l-2 11-10 50-1 3h-7l-1-2 1-3-7 4-4 1h-9l-8-3-6-7-2-5v-9l4-10 5-6 7-4 4-1h12l8 4 2 2zm-25 26-8 4-5 8-1 8 3 7 4 3 3 1h7l8-3 5-6 2-8-1-8-5-5-3-1z" fill="#0C090E"/>
<path transform="translate(348,577)" d="m0 0 17 1 13 1v3l-19 10-25 10-25 7-26 5-27 3-20 1h-14l-33-2-32-4-31-6-28-7-13-4-2-3 3-1 28 8 24 5 37 6 10 1 25 1h47l24-2 22-4 26-7 24-9 5-2 1-5-11-3z" fill="#0C3AAA"/>
<path transform="translate(561,474)" d="m0 0h11l12 3 1 4-2 5-5-2-6-2h-12l-7 4-2 7 3 5 19 8 6 5 2 6-1 8-4 6-7 5-9 2h-9l-11-3-6-3 1-5 1-3 4 1 8 4 12 1 8-3 3-4v-6l-4-4-16-6-8-7-1-3v-9l5-8 6-4z" fill="#0D0A0E"/>
<path transform="translate(1211,474)" d="m0 0h13l9 3 6 4-1 4-5 4-6-5-7-2-11 1-8 4-7 8-4 13 1 10 4 7 8 4h13l8-3 5-3 4 5v2l-10 6-9 2h-10l-10-3-8-7-4-8-1-3v-11l3-11 6-10 9-7 7-3z" fill="#0B0910"/>
<path transform="translate(982,491)" d="m0 0h13l8 4 5 7 1 4v9l-1 1h-37l3 8 4 3 3 1h9l10-4 3 4-1 3-8 4-4 1h-10l-9-3-6-7-2-6v-8l3-9 7-8zm1 7-7 4-4 5v2h30l-2-6-4-4-2-1z" fill="#110C11"/>
<path transform="translate(1430,491)" d="m0 0h13l8 4 4 5 2 6v9l-1 1h-37l3 8 6 4h10l10-4 3 5-3 3-10 4h-10l-9-3-6-7-2-7 1-11 4-8 7-6zm1 7-7 4-4 5v2h30l-3-8-5-3z" fill="#0F0C12"/>
<path transform="translate(608,491)" d="m0 0h13l6 3 6 7 1 3v11l-1 1h-37l4 9 6 3h9l8-3 4 1 1 4-6 4-7 2h-10l-10-4-6-9v-14l4-8 5-5 6-4zm0 7-6 4-5 6v1l28 1 2-1-1-5-4-5-3-1z" fill="#100C10"/>
<path transform="translate(883,491)" d="m0 0h12l7 3 5 6 2 4v11l-1 1h-37l3 8 4 3 3 1h9l8-3 4 1 1 4-6 4-7 2h-9l-9-3-5-5-3-5-1-9 3-10 5-7 8-5zm0 7-7 4-4 7h30l-2-7-6-4z" fill="#110C0F"/>
<path transform="translate(1105,491)" d="m0 0h12l7 3 5 6 2 4v11l-1 1h-37l4 9 6 3h9l8-3 4 1 1 4-6 4-7 2h-9l-9-3-5-4-3-6v-14l4-8 5-5 6-4zm0 7-6 4-5 6v1h30l-1-5-4-5-3-1z" fill="#110C0F"/>
<path transform="translate(1260,491)" d="m0 0h12l8 3 5 6 2 4v13l-5 10-6 5-11 4h-9l-10-4-5-6-2-11 2-9 6-8 5-4zm1 7-6 3-5 6-2 5v9l4 6 6 2h7l8-4 4-5 2-5v-9l-4-6-5-2z" fill="#0B080B"/>
<path transform="translate(1303,491)" d="m0 0h8l1 4 8-4h12l6 3 4 5 1 2v10l-5 24-1 1h-8l4-22v-12l-5-3h-7l-6 2-5 5-4 15-3 14-1 1h-7l1-11z" fill="#0C090E"/>
<path transform="translate(650,491)" d="m0 0h8v5l6-4 3-1h12l6 3 4 5 1 10-5 25-1 2h-8l1-8 3-14v-11l-3-3-2-1h-8l-7 3-4 6-6 27-1 1h-8l5-27z" fill="#0C090F"/>
<path transform="translate(1361,491)" d="m0 0h8v5l10-5h12l7 4 3 6v12l-5 23h-8l-1-2 5-23v-7l-3-4-3-1h-7l-7 3-4 5-4 16-3 13h-8l1-9z" fill="#0B080D"/>
<path transform="translate(935,491)" d="m0 0h12l8 4 4 4v2l-5 3-4-2-5-3h-10l-6 3-4 5-2 5v8l3 5 6 3h8l8-4h4l3 3-5 5-10 4h-9l-9-3-7-8-1-3v-11l3-8 5-6 6-4z" fill="#0C090D"/>
<path transform="translate(1482,491)" d="m0 0h13l8 4 4 5-5 4-4-2-5-3h-10l-6 3-4 5-2 5v9l2 4 7 3h7l7-3 4-2 4 3v3l-8 5-6 2h-10l-8-3-5-5-3-5v-13l5-10 7-6z" fill="#0A080E"/>
<path transform="translate(1040,491)" d="m0 0h8l2 6 6 27v2h2l2-5 12-19 7-11h9l-7 12-15 23-7 10h-8l-6-21-5-22z" fill="#0C090E"/>
<path transform="translate(1058,332)" d="m0 0 5 1 10 7 8 8 5 9 2 8v21l-4 13-9 13-11 9-14 7-13 4-11 2h-39l-22-4-4-3 4-1 10 2 20 2h24l19-2 17-6 3-1v-2l7-4h2v-2l7-6 4-7 3-7 2-3 1-16v-9l-3-9-8-11-5-5-6-4-4-2z" fill="#0B3AAA"/>
<path transform="translate(1525,481)" d="m0 0h8l-2 10h13l-1 6-13 1-4 21v8l2 1h10l1 4-3 3-3 1h-9l-6-4-2-5 1-11 4-19-6 1-1-4 1-3h8l1-9z" fill="#0A090F"/>
<path transform="translate(689,366)" d="m0 0h2v19l-4 13-7 11-4 5-11 8-12 6-13 4-12 2h-38l-22-4-14-4-15-6-3-2 1-5 4-8 2 1-2 7 1 5 12 4v2h7l10 3 13 2 10 1h27l23-4 10-3 8-4h3v-2l10-7 6-9 5-11 2-13v-10z" fill="#0C3AAA"/>
<path transform="translate(255,208)" d="m0 0h28l27 3 24 4 39 9 30 10 9 1-1 5-5 1-20-8-23-7-41-9-30-4-16-1h-23l-23 1 2-1v-2l6-1z" fill="#0C3AAA"/>
<path transform="translate(1024,491)" d="m0 0h9l-5 26-4 19h-8l-1-2 6-28z" fill="#0B090E"/>
<path transform="translate(337,289)" d="m0 0 9 2 28 11 14 7-3 1-15-3-12-1h-11l-17 2h-8l2-3 15-3 11-1-2-5h-2v-2l-4-1-5-2z" fill="#123EAA"/>
<path transform="translate(913,333)" d="m0 0h1l1 99h-53v-4l14 2 16-1 18 1 2-9z" fill="#0231A5"/>
<path transform="translate(1025,295)" d="m0 0 15 3 11 3 9 3h2l5-6 1 4-4 9-5-2-18-7-12-3-8-1z" fill="#123FAC"/>
<path transform="translate(759,424)" d="m0 0h2v8h-53l3-2h7l5-1h29l6-4z" fill="#0231A5"/>
<path transform="translate(671,263)" d="m0 0 9 3 4 4-11 26-2-1 2-9 4-11 1-7-6-2z" fill="#0E3DAC"/>
<path transform="translate(635,297)" d="m0 0 7 1 1 1 7 1 11 5 5-1 4-2-3 8-2 1-13-6-16-5-5-1z" fill="#1945B0"/>
<path transform="translate(759,524)" d="m0 0 5 1 2 2-1 7-3 2-5-1-2-2v-6z" fill="#130D0F"/>
<path transform="translate(1140,524)" d="m0 0 5 2 2 4-3 5-5 1-4-4 1-6z" fill="#110C0F"/>
<path transform="translate(1551,524)" d="m0 0 5 2 1 5-4 5-6-1-2-6 3-4z" fill="#110B0C"/>
<path transform="translate(541,405)" d="m0 0 2 1-2 7 1 5 12 4v2h4l1 3-5-1-15-6-3-2 1-5z" fill="#113FAD"/>
<path transform="translate(1029,471)" d="m0 0 7 1 1 6-3 3h-6l-2-2 1-7z" fill="#100A0A"/>
<path transform="translate(582,360)" d="m0 0 6 1 13 2 10 3 1 3-12-2-20-5z" fill="#1441AE"/>
<path transform="translate(947,343)" d="m0 0 4 1 8 7 16 7v2l-6-1-14-7-8-7z" fill="#0737AA"/>
<path transform="translate(791,319)" d="m0 0 3 1 10 17 4 7h-3l-7-10-7-13z" fill="#1643AF"/>
<path transform="translate(667,335)" d="m0 0 5 2 10 9 5 8-1 3-4-5-7-9-8-5z" fill="#0C3BAC"/>
<path transform="translate(445,131)" d="m0 0 5 1 1 5-6 16-2-2 2-10 1-2v-6z" fill="#1743AE"/>
<path transform="translate(243,259)" d="m0 0 9 2 24 8v1l-9-1-19-6-5-2z" fill="#2A53B6"/>
<path transform="translate(206,518)" d="m0 0 5 2 19 11-1 2-7-2-15-10z" fill="#1845AF"/>
<path transform="translate(990,362)" d="m0 0 15 3 8 3 1 2-8-1-15-4z" fill="#1240AD"/>
<path transform="translate(689,366)" d="m0 0h2v19l-1 2h-2v-20z" fill="#0A37A6"/>
<path transform="translate(1025,295)" d="m0 0 15 3 3 2v2l-14-3-8-1z" fill="#1442AF"/>
<path transform="translate(832,401)" d="m0 0 1 3-8 13-4-1v-3l5-5 1-2h2l2-4z" fill="#1944AE"/>
<path transform="translate(110,443)" d="m0 0 4 2 8 7-1 3-6-4-1-2-3-1v2l-3 1 1-7z" fill="#103FAE"/>
<path transform="translate(560,269)" d="m0 0 2 2-13 13-1-3 9-10z" fill="#0C3BAC"/>
<path transform="translate(562,352)" d="m0 0 9 3 8 4v2l-10-3-7-4z" fill="#123FAD"/>
<path transform="translate(934,414)" d="m0 0h3l5 5 7 3v2l-6-1-9-5z" fill="#0D3BAB"/>
<path transform="translate(843,382)" d="m0 0 1 3-8 14-2-3 6-11z" fill="#1844AF"/>
<path transform="translate(187,506)" d="m0 0 4 1 15 10v2l-5-2-12-8z" fill="#0234AA"/>
<path transform="translate(543,419)" d="m0 0 5 1 6 2v2h4l1 3-5-1-11-4z" fill="#0D3DAE"/>
<path transform="translate(1076,267)" d="m0 0 5 1-3 9-2 3-1-5z" fill="#1643AE"/>
<path transform="translate(618,321)" d="m0 0h7l12 3v1l-13-1-6-2z" fill="#1845B0"/>
<path transform="translate(947,343)" d="m0 0 4 1 7 7-1 2-9-7z" fill="#0A39AB"/>
<path transform="translate(951,375)" d="m0 0 6 2 4 3-3 1-5-3v2l-4 1z" fill="#2954B7"/>
<path transform="translate(66,577)" d="m0 0 1 3-1 7h-4l1-7 3-1z" fill="#0233A8"/>
<path transform="translate(311,569)" d="m0 0 9 1 4 2-4 1-8-2z" fill="#1442AF"/>
</svg>
