<?xml version="1.0" encoding="UTF-8"?>
<svg xmlns="http://www.w3.org/2000/svg" xmlns:xlink="http://www.w3.org/1999/xlink" width="100px" height="124px" viewBox="0 0 100 124" version="1.1">
<g id="surface1">
<path style=" stroke:none;fill-rule:nonzero;fill:rgb(1.176471%,25.098041%,72.941178%);fill-opacity:1;" d="M 50.5 4.625 L 57.9375 4.625 L 59.875 4.75 L 63.0625 5.0625 L 68.3125 5.6875 L 71.3125 6.125 L 75.0625 6.8125 L 78.6875 7.5625 L 81.3125 8.1875 L 83.625 8.8125 L 86.4375 9.6875 L 89 10.5625 L 92.0625 11.625 L 92.8125 11.9375 L 93.25 12.3125 L 93.5 12.75 L 93.5625 13.25 L 93.4375 13.875 L 92.3125 16.625 L 91.5625 18.5 L 90.9375 20.1875 L 90 22.9375 L 89.125 25.125 L 88.25 27.1875 L 87.3125 29.5625 L 86.6875 31.3125 L 85.4375 34.5 L 84.9375 35.8125 L 84.625 36.3125 L 84.4375 36.4375 L 83.8125 36.4375 L 82.75 36 L 81.3125 35.375 L 79.5 34.6875 L 77.4375 34 L 75.25 33.375 L 71.75 32.5 L 67.6875 31.625 L 64.625 31 L 61.8125 30.5625 L 59.125 30.25 L 55.4375 30 L 49.6875 30 L 47.4375 30.125 L 45.875 30.3125 L 44.5625 30.625 L 43.4375 31 L 42.1875 31.625 L 41.4375 32.1875 L 41 32.625 L 40.5 33.5 L 40.25 34.3125 L 40.25 35.125 L 40.5 35.8125 L 40.9375 36.5 L 41.4375 37 L 42.5625 37.8125 L 43.8125 38.5625 L 45.0625 39.25 L 46.625 39.9375 L 48.4375 40.625 L 51.375 41.625 L 54.4375 42.625 L 59.0625 44.0625 L 63 45.25 L 65.125 45.875 L 67.625 46.6875 L 70.75 47.8125 L 74 49.0625 L 76.375 50 L 77.875 50.6875 L 79.1875 51.3125 L 79.6875 51.625 L 79.625 51.75 L 78.625 51.5 L 77.0625 51.1875 L 75.125 50.9375 L 73.3125 50.8125 L 70.75 50.8125 L 69 50.9375 L 67.0625 51.1875 L 65.1875 51.5625 L 63.3125 52.0625 L 61.3125 52.75 L 59.8125 53.375 L 58.3125 54.0625 L 56.875 54.875 L 55.625 55.625 L 54.625 56.3125 L 53.4375 57.1875 L 52.75 57.75 L 51.8125 58.5625 L 51 59.3125 L 49.875 60.4375 L 49.4375 60.9375 L 48.875 61.5625 L 48.1875 62.4375 L 47.5625 63.25 L 46.875 64.25 L 46.1875 65.3125 L 45.4375 66.5625 L 44.875 66.4375 L 43.25 66 L 40.8125 65.25 L 37.5 64.125 L 35.5 63.5 L 33 62.625 L 31 61.8125 L 29.125 61 L 27.5625 60.25 L 26.1875 59.5 L 24.625 58.625 L 23 57.625 L 21.4375 56.5625 L 20.3125 55.75 L 19.4375 55.0625 L 18.625 54.375 L 17.9375 53.8125 L 16.4375 52.4375 L 15.625 51.6875 L 14.75 50.75 L 14 49.8125 L 13.25 48.75 L 12.625 47.875 L 11.8125 46.5625 L 11.0625 45.125 L 10.4375 43.5 L 9.9375 41.625 L 9.6875 40.25 L 9.5 38.625 L 9.4375 37.75 L 9.375 36.0625 L 9.375 32.3125 L 9.5 30.375 L 9.8125 28.1875 L 10.1875 26.5 L 10.625 24.9375 L 11.25 23.25 L 11.75 22.1875 L 12.4375 20.9375 L 12.875 20.25 L 13.625 19.1875 L 14.25 18.375 L 14.9375 17.5625 L 15.5 16.875 L 17.875 14.5 L 18.5625 13.9375 L 19.375 13.25 L 20.5 12.4375 L 21.8125 11.5625 L 22.75 11 L 24.125 10.25 L 26.0625 9.3125 L 27.75 8.625 L 29.875 7.875 L 31.9375 7.25 L 34.3125 6.625 L 36.875 6.0625 L 39.6875 5.5625 L 42 5.25 L 44.375 5 L 46.6875 4.8125 Z M 50.5 4.625 "/>
<path style=" stroke:none;fill-rule:nonzero;fill:rgb(91.37255%,41.176471%,1.568628%);fill-opacity:1;" d="M 71.5625 55.5625 L 74.0625 55.6875 L 75.8125 55.875 L 77.5625 56.1875 L 79.3125 56.625 L 81.1875 57.25 L 83.0625 58.0625 L 84.75 58.9375 L 86.125 59.8125 L 87.125 60.5 L 88 61.1875 L 88.6875 61.75 L 89.4375 62.4375 L 89.875 62.875 L 90.25 63.1875 L 90.6875 63.6875 L 91.1875 64.1875 L 91.75 64.875 L 92.5625 65.875 L 93.8125 67.75 L 94.5625 69.0625 L 95.4375 70.8125 L 96.125 72.5625 L 96.625 74.125 L 97.0625 76 L 97.375 77.8125 L 97.5625 79.8125 L 97.5625 82.5 L 97.375 84.5625 L 97.0625 86.3125 L 96.6875 87.9375 L 95.9375 90.1875 L 95.3125 91.6875 L 94.8125 92.75 L 94.0625 94.125 L 93.25 95.375 L 92.625 96.25 L 91.75 97.375 L 90.9375 98.3125 L 90.5 98.75 L 90.0625 99.25 L 89.25 100 L 88.625 100.5625 L 87.9375 101.125 L 86.75 102 L 85.8125 102.625 L 84.4375 103.4375 L 82.875 104.25 L 81.0625 105 L 79 105.6875 L 77.125 106.125 L 75.125 106.4375 L 73.9375 106.5625 L 72.8125 106.625 L 71.3125 106.625 L 69.5625 106.5 L 67.75 106.25 L 66.1875 105.9375 L 64.5625 105.5 L 63.25 105.0625 L 61.875 104.5 L 60.3125 103.75 L 58.9375 103 L 57.25 101.875 L 56.4375 101.25 L 55.75 100.6875 L 54.875 99.9375 L 53.875 99 L 53 98.0625 L 52.4375 97.375 L 51.8125 96.625 L 51 95.5 L 50.25 94.3125 L 49.625 93.25 L 48.75 91.5 L 48 89.5625 L 47.5 88 L 47.0625 86.125 L 46.8125 84.6875 L 46.625 82.9375 L 46.625 79.3125 L 46.8125 77.5 L 47.125 75.75 L 47.5 74.25 L 48 72.625 L 48.8125 70.625 L 49.3125 69.625 L 49.875 68.5625 L 50.625 67.3125 L 51.375 66.25 L 52.125 65.25 L 52.8125 64.4375 L 53.4375 63.6875 L 53.6875 63.4375 L 53.8125 63.4375 L 53.9375 63.1875 L 54.0625 63.1875 L 54.1875 62.9375 L 54.3125 62.9375 L 54.4375 62.6875 L 54.9375 62.25 L 55.75 61.5 L 56.625 60.8125 L 57.75 60 L 58.9375 59.25 L 60 58.625 L 61.5 57.875 L 63.5 57.0625 L 65.0625 56.5625 L 66.875 56.125 L 68.6875 55.8125 L 70 55.6875 L 71.125 55.625 Z M 80.875 63.1875 L 80.875 67.5 L 81.6875 68.1875 L 82.1875 68.625 L 83.3125 69.75 L 83.875 70.4375 L 84.6875 71.5625 L 85.375 72.6875 L 86.0625 74 L 86.625 75.4375 L 87.0625 76.875 L 87.375 78.4375 L 87.5625 80.125 L 87.5625 82.1875 L 87.3125 84.125 L 87 85.5625 L 86.5625 87 L 85.9375 88.5 L 85.25 89.8125 L 84.4375 91.0625 L 83.5625 92.1875 L 82.875 92.9375 L 81.875 93.9375 L 81 94.625 L 80.875 94.75 L 80.875 99 L 81.25 98.875 L 82.375 98.125 L 83.125 97.5625 L 84.125 96.75 L 85.0625 95.875 L 85.3125 95.625 L 85.3125 95.5 L 85.5625 95.375 L 86.25 94.625 L 86.9375 93.75 L 87.5 93 L 88.1875 91.9375 L 88.9375 90.625 L 89.5 89.4375 L 89.875 88.5 L 90.5 86.625 L 90.875 85 L 91.125 83.4375 L 91.25 81.9375 L 91.25 80.25 L 91.0625 78.3125 L 90.75 76.5625 L 90.375 75.125 L 89.6875 73.1875 L 88.6875 71.125 L 87.9375 69.875 L 87.1875 68.8125 L 86.5625 68 L 85.8125 67.125 L 84.1875 65.5 L 83.3125 64.8125 L 82.25 64 L 81.0625 63.25 Z M 71.0625 70.4375 L 69.875 70.625 L 68.6875 70.9375 L 67.4375 71.4375 L 66.3125 72.0625 L 65.3125 72.8125 L 64.5625 73.5 L 64 74.0625 L 63.25 75.0625 L 62.6875 75.9375 L 62.0625 77.3125 L 61.6875 78.5 L 61.4375 79.8125 L 61.375 80.4375 L 61.375 81.75 L 61.5625 83.1875 L 61.875 84.375 L 62.25 85.375 L 62.75 86.375 L 63.375 87.375 L 63.9375 88.0625 L 64.625 88.8125 L 65.3125 89.4375 L 66.375 90.1875 L 67.5 90.8125 L 68.75 91.3125 L 69.875 91.625 L 71.0625 91.8125 L 73 91.8125 L 74.1875 91.625 L 75.375 91.3125 L 76.375 90.9375 L 77.6875 90.25 L 78.5 89.6875 L 79.3125 89 L 79.9375 88.4375 L 80.5 87.75 L 81.125 86.875 L 81.6875 85.875 L 82.125 84.875 L 82.5 83.6875 L 82.75 82.375 L 82.8125 81.6875 L 82.8125 80.5625 L 82.6875 79.5 L 82.4375 78.3125 L 82.0625 77.1875 L 81.375 75.75 L 80.75 74.8125 L 79.9375 73.8125 L 79.3125 73.1875 L 78.4375 72.5 L 77.5 71.875 L 76.5625 71.375 L 75.25 70.875 L 74.3125 70.625 L 73.1875 70.4375 Z M 71.0625 70.4375 "/>
<path style=" stroke:none;fill-rule:nonzero;fill:rgb(1.176471%,25.098041%,72.941178%);fill-opacity:1;" d="M 18.25 81.125 L 18.5 81.25 L 19.5625 82.25 L 20.5 83.125 L 21.125 83.6875 L 21.8125 84.3125 L 22.5 84.875 L 23.3125 85.625 L 24 86.1875 L 24.9375 87 L 26 87.875 L 26.6875 88.4375 L 27.6875 89.25 L 28.75 90.0625 L 29.625 90.75 L 30.75 91.625 L 33.125 93.375 L 34 94 L 35.0625 94.75 L 36.3125 95.625 L 38.1875 96.875 L 39.4375 97.6875 L 40.625 98.4375 L 41.9375 99.25 L 42.875 99.8125 L 44.375 100.6875 L 46.125 101.6875 L 47.875 102.625 L 49.3125 103.375 L 50.25 103.875 L 51.75 104.5625 L 52.75 105.0625 L 54.3125 105.75 L 56.375 106.625 L 59.125 107.6875 L 62.0625 108.6875 L 65.3125 109.625 L 67.75 110.1875 L 70 110.625 L 72.6875 111 L 74.5625 111.1875 L 77.0625 111.3125 L 78.3125 111.3125 L 78.3125 111.5 L 76.875 112.3125 L 74.25 113.6875 L 72.1875 114.625 L 69.875 115.5625 L 67.625 116.375 L 65.25 117.125 L 62.9375 117.75 L 60.1875 118.375 L 57.4375 118.875 L 54.375 119.3125 L 52 119.5625 L 49.4375 119.75 L 46.6875 119.875 L 42.25 119.875 L 39.625 119.75 L 36.8125 119.5625 L 34.25 119.3125 L 31.125 118.9375 L 27.875 118.4375 L 24.75 117.875 L 21.5 117.1875 L 18.875 116.5625 L 16.0625 115.8125 L 13.0625 114.9375 L 9.4375 113.75 L 7.625 113.0625 L 7.4375 112.9375 L 7.5 112.5625 L 8.375 110 L 9.3125 107.3125 L 10.0625 105.0625 L 11.6875 100.25 L 12.5625 97.75 L 13.25 95.6875 L 14.125 93.125 L 15.8125 88.125 L 16.5625 86 L 17.3125 83.75 L 18.0625 81.5625 Z M 18.25 81.125 "/>
</g>
</svg>
